<mxfile host="app.diagrams.net" agent="Mozilla/5.0 (Macintosh; Intel Mac OS X 10_15_7) AppleWebKit/537.36 (KHTML, like Gecko) Chrome/129.0.0.0 Safari/537.36" version="24.7.17">
  <diagram name="Página-1" id="o47DHIeaNQYIoSvxBMfL">
    <mxGraphModel dx="2486" dy="2093" grid="1" gridSize="10" guides="1" tooltips="1" connect="1" arrows="1" fold="1" page="1" pageScale="1" pageWidth="827" pageHeight="1169" math="0" shadow="0">
      <root>
        <mxCell id="0" />
        <mxCell id="1" parent="0" />
        <mxCell id="W9Ks_EkjWokIj7THZj_N-93" value="" style="rounded=0;whiteSpace=wrap;html=1;" vertex="1" parent="1">
          <mxGeometry x="265" y="994" width="130" height="72" as="geometry" />
        </mxCell>
        <mxCell id="W9Ks_EkjWokIj7THZj_N-1" value="&lt;h1 style=&quot;margin-top: 0px;&quot;&gt;DATOS&lt;/h1&gt;&lt;p&gt;- JUGADORES (4)&lt;/p&gt;&lt;p&gt;- PARTIDA&lt;/p&gt;&lt;p&gt;- ÁRBITRO&amp;nbsp;&lt;/p&gt;&lt;p&gt;- LICENCIA ÁRBITRO&lt;/p&gt;&lt;p&gt;- FEDERACIONES REGIONALES (1)&lt;/p&gt;&lt;p&gt;- HABITACIÓN&lt;/p&gt;&lt;p&gt;- SALAS HOTEL&lt;/p&gt;&lt;p&gt;- MOVIMIENTOS&lt;/p&gt;&lt;p&gt;&lt;br&gt;&lt;/p&gt;" style="text;html=1;whiteSpace=wrap;overflow=hidden;rounded=0;" vertex="1" parent="1">
          <mxGeometry x="-290" y="10" width="180" height="280" as="geometry" />
        </mxCell>
        <mxCell id="W9Ks_EkjWokIj7THZj_N-16" style="edgeStyle=orthogonalEdgeStyle;rounded=0;orthogonalLoop=1;jettySize=auto;html=1;entryX=0.5;entryY=0;entryDx=0;entryDy=0;" edge="1" parent="1" source="W9Ks_EkjWokIj7THZj_N-2" target="W9Ks_EkjWokIj7THZj_N-15">
          <mxGeometry relative="1" as="geometry" />
        </mxCell>
        <mxCell id="W9Ks_EkjWokIj7THZj_N-62" style="edgeStyle=orthogonalEdgeStyle;rounded=0;orthogonalLoop=1;jettySize=auto;html=1;" edge="1" parent="1" source="W9Ks_EkjWokIj7THZj_N-2" target="W9Ks_EkjWokIj7THZj_N-64">
          <mxGeometry relative="1" as="geometry">
            <mxPoint x="650" y="392" as="targetPoint" />
          </mxGeometry>
        </mxCell>
        <mxCell id="W9Ks_EkjWokIj7THZj_N-2" value="ÁRBITROS" style="rounded=0;whiteSpace=wrap;html=1;" vertex="1" parent="1">
          <mxGeometry x="580" y="442" width="120" height="60" as="geometry" />
        </mxCell>
        <mxCell id="W9Ks_EkjWokIj7THZj_N-14" style="edgeStyle=orthogonalEdgeStyle;rounded=0;orthogonalLoop=1;jettySize=auto;html=1;entryX=0.5;entryY=0;entryDx=0;entryDy=0;" edge="1" parent="1" source="W9Ks_EkjWokIj7THZj_N-3" target="W9Ks_EkjWokIj7THZj_N-12">
          <mxGeometry relative="1" as="geometry" />
        </mxCell>
        <mxCell id="W9Ks_EkjWokIj7THZj_N-33" style="edgeStyle=orthogonalEdgeStyle;rounded=0;orthogonalLoop=1;jettySize=auto;html=1;entryX=0.5;entryY=0;entryDx=0;entryDy=0;" edge="1" parent="1" source="W9Ks_EkjWokIj7THZj_N-3" target="W9Ks_EkjWokIj7THZj_N-27">
          <mxGeometry relative="1" as="geometry" />
        </mxCell>
        <mxCell id="W9Ks_EkjWokIj7THZj_N-58" style="edgeStyle=orthogonalEdgeStyle;rounded=0;orthogonalLoop=1;jettySize=auto;html=1;entryX=0;entryY=0.5;entryDx=0;entryDy=0;" edge="1" parent="1" source="W9Ks_EkjWokIj7THZj_N-3" target="W9Ks_EkjWokIj7THZj_N-57">
          <mxGeometry relative="1" as="geometry" />
        </mxCell>
        <mxCell id="W9Ks_EkjWokIj7THZj_N-3" value="JUGADORES" style="rounded=0;whiteSpace=wrap;html=1;" vertex="1" parent="1">
          <mxGeometry x="220" y="440" width="120" height="60" as="geometry" />
        </mxCell>
        <mxCell id="W9Ks_EkjWokIj7THZj_N-170" style="edgeStyle=orthogonalEdgeStyle;rounded=0;orthogonalLoop=1;jettySize=auto;html=1;" edge="1" parent="1" source="W9Ks_EkjWokIj7THZj_N-4" target="W9Ks_EkjWokIj7THZj_N-171">
          <mxGeometry relative="1" as="geometry">
            <mxPoint x="370" y="180" as="targetPoint" />
          </mxGeometry>
        </mxCell>
        <mxCell id="W9Ks_EkjWokIj7THZj_N-4" value="PARTIDA" style="rounded=0;whiteSpace=wrap;html=1;" vertex="1" parent="1">
          <mxGeometry x="354" y="350" width="120" height="60" as="geometry" />
        </mxCell>
        <mxCell id="W9Ks_EkjWokIj7THZj_N-26" style="edgeStyle=orthogonalEdgeStyle;rounded=0;orthogonalLoop=1;jettySize=auto;html=1;" edge="1" parent="1" source="W9Ks_EkjWokIj7THZj_N-5" target="W9Ks_EkjWokIj7THZj_N-27">
          <mxGeometry relative="1" as="geometry">
            <mxPoint x="110" y="655" as="targetPoint" />
          </mxGeometry>
        </mxCell>
        <mxCell id="W9Ks_EkjWokIj7THZj_N-5" value="LICENCIA" style="whiteSpace=wrap;html=1;" vertex="1" parent="1">
          <mxGeometry x="50" y="720" width="120" height="60" as="geometry" />
        </mxCell>
        <mxCell id="W9Ks_EkjWokIj7THZj_N-28" style="edgeStyle=orthogonalEdgeStyle;rounded=0;orthogonalLoop=1;jettySize=auto;html=1;" edge="1" parent="1" source="W9Ks_EkjWokIj7THZj_N-6" target="W9Ks_EkjWokIj7THZj_N-29">
          <mxGeometry relative="1" as="geometry">
            <mxPoint x="740" y="860" as="targetPoint" />
          </mxGeometry>
        </mxCell>
        <mxCell id="W9Ks_EkjWokIj7THZj_N-6" value="FEDERACIONES&lt;div&gt;NACIONALES&lt;/div&gt;" style="rounded=0;whiteSpace=wrap;html=1;" vertex="1" parent="1">
          <mxGeometry x="680" y="900" width="120" height="60" as="geometry" />
        </mxCell>
        <mxCell id="W9Ks_EkjWokIj7THZj_N-89" style="edgeStyle=orthogonalEdgeStyle;rounded=0;orthogonalLoop=1;jettySize=auto;html=1;entryX=0;entryY=0.5;entryDx=0;entryDy=0;" edge="1" parent="1" source="W9Ks_EkjWokIj7THZj_N-7" target="W9Ks_EkjWokIj7THZj_N-87">
          <mxGeometry relative="1" as="geometry" />
        </mxCell>
        <mxCell id="W9Ks_EkjWokIj7THZj_N-148" style="edgeStyle=orthogonalEdgeStyle;rounded=0;orthogonalLoop=1;jettySize=auto;html=1;entryX=0;entryY=0.5;entryDx=0;entryDy=0;" edge="1" parent="1" source="W9Ks_EkjWokIj7THZj_N-7" target="W9Ks_EkjWokIj7THZj_N-147">
          <mxGeometry relative="1" as="geometry" />
        </mxCell>
        <mxCell id="W9Ks_EkjWokIj7THZj_N-7" value="HOTEL" style="rounded=0;whiteSpace=wrap;html=1;" vertex="1" parent="1">
          <mxGeometry x="10" y="1000" width="120" height="60" as="geometry" />
        </mxCell>
        <mxCell id="W9Ks_EkjWokIj7THZj_N-24" style="edgeStyle=orthogonalEdgeStyle;rounded=0;orthogonalLoop=1;jettySize=auto;html=1;" edge="1" parent="1" source="W9Ks_EkjWokIj7THZj_N-8" target="W9Ks_EkjWokIj7THZj_N-25">
          <mxGeometry relative="1" as="geometry">
            <mxPoint x="330" y="930" as="targetPoint" />
          </mxGeometry>
        </mxCell>
        <mxCell id="W9Ks_EkjWokIj7THZj_N-90" style="edgeStyle=orthogonalEdgeStyle;rounded=0;orthogonalLoop=1;jettySize=auto;html=1;entryX=1;entryY=0.5;entryDx=0;entryDy=0;" edge="1" parent="1" source="W9Ks_EkjWokIj7THZj_N-8" target="W9Ks_EkjWokIj7THZj_N-87">
          <mxGeometry relative="1" as="geometry" />
        </mxCell>
        <mxCell id="W9Ks_EkjWokIj7THZj_N-8" value="HABITACION" style="rounded=0;whiteSpace=wrap;html=1;" vertex="1" parent="1">
          <mxGeometry x="270" y="1000" width="120" height="60" as="geometry" />
        </mxCell>
        <mxCell id="W9Ks_EkjWokIj7THZj_N-18" style="edgeStyle=orthogonalEdgeStyle;rounded=0;orthogonalLoop=1;jettySize=auto;html=1;entryX=0.5;entryY=1;entryDx=0;entryDy=0;" edge="1" parent="1" source="W9Ks_EkjWokIj7THZj_N-9" target="W9Ks_EkjWokIj7THZj_N-15">
          <mxGeometry relative="1" as="geometry" />
        </mxCell>
        <mxCell id="W9Ks_EkjWokIj7THZj_N-19" style="edgeStyle=orthogonalEdgeStyle;rounded=0;orthogonalLoop=1;jettySize=auto;html=1;entryX=0.5;entryY=1;entryDx=0;entryDy=0;" edge="1" parent="1" source="W9Ks_EkjWokIj7THZj_N-9" target="W9Ks_EkjWokIj7THZj_N-12">
          <mxGeometry relative="1" as="geometry" />
        </mxCell>
        <mxCell id="W9Ks_EkjWokIj7THZj_N-115" style="edgeStyle=orthogonalEdgeStyle;rounded=0;orthogonalLoop=1;jettySize=auto;html=1;" edge="1" parent="1" source="W9Ks_EkjWokIj7THZj_N-9" target="W9Ks_EkjWokIj7THZj_N-25">
          <mxGeometry relative="1" as="geometry" />
        </mxCell>
        <mxCell id="W9Ks_EkjWokIj7THZj_N-116" style="edgeStyle=orthogonalEdgeStyle;rounded=0;orthogonalLoop=1;jettySize=auto;html=1;entryX=0.5;entryY=0;entryDx=0;entryDy=0;" edge="1" parent="1" source="W9Ks_EkjWokIj7THZj_N-9" target="W9Ks_EkjWokIj7THZj_N-29">
          <mxGeometry relative="1" as="geometry" />
        </mxCell>
        <mxCell id="W9Ks_EkjWokIj7THZj_N-117" style="edgeStyle=orthogonalEdgeStyle;rounded=0;orthogonalLoop=1;jettySize=auto;html=1;entryX=0.5;entryY=0;entryDx=0;entryDy=0;" edge="1" parent="1" source="W9Ks_EkjWokIj7THZj_N-9" target="W9Ks_EkjWokIj7THZj_N-31">
          <mxGeometry relative="1" as="geometry" />
        </mxCell>
        <mxCell id="W9Ks_EkjWokIj7THZj_N-9" value="PERSONAS" style="rounded=0;whiteSpace=wrap;html=1;" vertex="1" parent="1">
          <mxGeometry x="370" y="710" width="120" height="60" as="geometry" />
        </mxCell>
        <mxCell id="W9Ks_EkjWokIj7THZj_N-30" style="edgeStyle=orthogonalEdgeStyle;rounded=0;orthogonalLoop=1;jettySize=auto;html=1;" edge="1" parent="1" source="W9Ks_EkjWokIj7THZj_N-10" target="W9Ks_EkjWokIj7THZj_N-31">
          <mxGeometry relative="1" as="geometry">
            <mxPoint x="482.5" y="1190" as="targetPoint" />
          </mxGeometry>
        </mxCell>
        <mxCell id="W9Ks_EkjWokIj7THZj_N-10" value="SALAS HOTEL" style="rounded=0;whiteSpace=wrap;html=1;" vertex="1" parent="1">
          <mxGeometry x="422.5" y="1230" width="125" height="70" as="geometry" />
        </mxCell>
        <mxCell id="W9Ks_EkjWokIj7THZj_N-11" value="MOVIMIENTOS" style="rounded=0;whiteSpace=wrap;html=1;" vertex="1" parent="1">
          <mxGeometry x="335" y="20" width="120" height="60" as="geometry" />
        </mxCell>
        <mxCell id="W9Ks_EkjWokIj7THZj_N-12" value="AGRUPAN" style="rhombus;whiteSpace=wrap;html=1;" vertex="1" parent="1">
          <mxGeometry x="240" y="560" width="80" height="80" as="geometry" />
        </mxCell>
        <mxCell id="W9Ks_EkjWokIj7THZj_N-15" value="AGRUPAN" style="rhombus;whiteSpace=wrap;html=1;" vertex="1" parent="1">
          <mxGeometry x="600" y="562" width="80" height="80" as="geometry" />
        </mxCell>
        <mxCell id="W9Ks_EkjWokIj7THZj_N-20" value="0:1" style="text;html=1;align=center;verticalAlign=middle;resizable=0;points=[];autosize=1;strokeColor=none;fillColor=none;" vertex="1" parent="1">
          <mxGeometry x="220" y="518" width="40" height="30" as="geometry" />
        </mxCell>
        <mxCell id="W9Ks_EkjWokIj7THZj_N-21" value="0:M" style="text;html=1;align=center;verticalAlign=middle;resizable=0;points=[];autosize=1;strokeColor=none;fillColor=none;" vertex="1" parent="1">
          <mxGeometry x="230" y="678" width="40" height="30" as="geometry" />
        </mxCell>
        <mxCell id="W9Ks_EkjWokIj7THZj_N-22" value="0:1" style="text;html=1;align=center;verticalAlign=middle;resizable=0;points=[];autosize=1;strokeColor=none;fillColor=none;" vertex="1" parent="1">
          <mxGeometry x="640" y="510" width="40" height="30" as="geometry" />
        </mxCell>
        <mxCell id="W9Ks_EkjWokIj7THZj_N-23" value="0:M" style="text;html=1;align=center;verticalAlign=middle;resizable=0;points=[];autosize=1;strokeColor=none;fillColor=none;" vertex="1" parent="1">
          <mxGeometry x="640" y="680" width="40" height="30" as="geometry" />
        </mxCell>
        <mxCell id="W9Ks_EkjWokIj7THZj_N-25" value="ALOJAN" style="rhombus;whiteSpace=wrap;html=1;" vertex="1" parent="1">
          <mxGeometry x="290" y="890" width="80" height="80" as="geometry" />
        </mxCell>
        <mxCell id="W9Ks_EkjWokIj7THZj_N-27" value="TIENEN" style="rhombus;whiteSpace=wrap;html=1;" vertex="1" parent="1">
          <mxGeometry x="70" y="585" width="80" height="80" as="geometry" />
        </mxCell>
        <mxCell id="W9Ks_EkjWokIj7THZj_N-29" value="ADSCRITO" style="rhombus;whiteSpace=wrap;html=1;" vertex="1" parent="1">
          <mxGeometry x="700" y="790" width="80" height="80" as="geometry" />
        </mxCell>
        <mxCell id="W9Ks_EkjWokIj7THZj_N-31" value="RESERVAR" style="rhombus;whiteSpace=wrap;html=1;" vertex="1" parent="1">
          <mxGeometry x="442.5" y="1120" width="80" height="80" as="geometry" />
        </mxCell>
        <mxCell id="W9Ks_EkjWokIj7THZj_N-34" value="0:1" style="text;html=1;align=center;verticalAlign=middle;resizable=0;points=[];autosize=1;strokeColor=none;fillColor=none;" vertex="1" parent="1">
          <mxGeometry x="50" y="488" width="40" height="30" as="geometry" />
        </mxCell>
        <mxCell id="W9Ks_EkjWokIj7THZj_N-35" value="0:N" style="text;html=1;align=center;verticalAlign=middle;resizable=0;points=[];autosize=1;strokeColor=none;fillColor=none;" vertex="1" parent="1">
          <mxGeometry x="40" y="678" width="40" height="30" as="geometry" />
        </mxCell>
        <mxCell id="W9Ks_EkjWokIj7THZj_N-53" style="edgeStyle=orthogonalEdgeStyle;rounded=0;orthogonalLoop=1;jettySize=auto;html=1;" edge="1" parent="1" source="W9Ks_EkjWokIj7THZj_N-40" target="W9Ks_EkjWokIj7THZj_N-3">
          <mxGeometry relative="1" as="geometry" />
        </mxCell>
        <mxCell id="W9Ks_EkjWokIj7THZj_N-40" value="NOMBRE" style="ellipse;whiteSpace=wrap;html=1;" vertex="1" parent="1">
          <mxGeometry x="50" y="310" width="90" height="60" as="geometry" />
        </mxCell>
        <mxCell id="W9Ks_EkjWokIj7THZj_N-43" style="edgeStyle=orthogonalEdgeStyle;rounded=0;orthogonalLoop=1;jettySize=auto;html=1;" edge="1" parent="1" source="W9Ks_EkjWokIj7THZj_N-42" target="W9Ks_EkjWokIj7THZj_N-3">
          <mxGeometry relative="1" as="geometry" />
        </mxCell>
        <mxCell id="W9Ks_EkjWokIj7THZj_N-45" value="FECHA&lt;span style=&quot;color: rgba(0, 0, 0, 0); font-family: monospace; font-size: 0px; text-align: start; text-wrap: nowrap;&quot;&gt;%3CmxGraphModel%3E%3Croot%3E%3CmxCell%20id%3D%220%22%2F%3E%3CmxCell%20id%3D%221%22%20parent%3D%220%22%2F%3E%3CmxCell%20id%3D%222%22%20value%3D%22NOMBRE%22%20style%3D%22ellipse%3BwhiteSpace%3Dwrap%3Bhtml%3D1%3B%22%20vertex%3D%221%22%20parent%3D%221%22%3E%3CmxGeometry%20x%3D%2250%22%20y%3D%22310%22%20width%3D%2290%22%20height%3D%2260%22%20as%3D%22geometry%22%2F%3E%3C%2FmxCell%3E%3C%2Froot%3E%3C%2FmxGraphModel%3E&lt;/span&gt;" style="ellipse;whiteSpace=wrap;html=1;" vertex="1" parent="1">
          <mxGeometry x="10" y="240" width="90" height="60" as="geometry" />
        </mxCell>
        <mxCell id="W9Ks_EkjWokIj7THZj_N-55" style="edgeStyle=orthogonalEdgeStyle;rounded=0;orthogonalLoop=1;jettySize=auto;html=1;" edge="1" parent="1" source="W9Ks_EkjWokIj7THZj_N-47" target="W9Ks_EkjWokIj7THZj_N-3">
          <mxGeometry relative="1" as="geometry" />
        </mxCell>
        <mxCell id="W9Ks_EkjWokIj7THZj_N-47" value="POSICIÓN&lt;div&gt;RANKING&lt;/div&gt;" style="ellipse;whiteSpace=wrap;html=1;" vertex="1" parent="1">
          <mxGeometry x="-50" y="350" width="90" height="60" as="geometry" />
        </mxCell>
        <mxCell id="W9Ks_EkjWokIj7THZj_N-50" style="edgeStyle=orthogonalEdgeStyle;rounded=0;orthogonalLoop=1;jettySize=auto;html=1;entryX=-0.027;entryY=0.326;entryDx=0;entryDy=0;entryPerimeter=0;" edge="1" parent="1" source="W9Ks_EkjWokIj7THZj_N-41" target="W9Ks_EkjWokIj7THZj_N-3">
          <mxGeometry relative="1" as="geometry" />
        </mxCell>
        <mxCell id="W9Ks_EkjWokIj7THZj_N-51" style="edgeStyle=orthogonalEdgeStyle;rounded=0;orthogonalLoop=1;jettySize=auto;html=1;entryX=0.657;entryY=0.027;entryDx=0;entryDy=0;entryPerimeter=0;" edge="1" parent="1" source="W9Ks_EkjWokIj7THZj_N-48" target="W9Ks_EkjWokIj7THZj_N-3">
          <mxGeometry relative="1" as="geometry" />
        </mxCell>
        <mxCell id="W9Ks_EkjWokIj7THZj_N-52" style="edgeStyle=orthogonalEdgeStyle;rounded=0;orthogonalLoop=1;jettySize=auto;html=1;entryX=0.312;entryY=0.004;entryDx=0;entryDy=0;entryPerimeter=0;" edge="1" parent="1" source="W9Ks_EkjWokIj7THZj_N-46" target="W9Ks_EkjWokIj7THZj_N-3">
          <mxGeometry relative="1" as="geometry" />
        </mxCell>
        <mxCell id="W9Ks_EkjWokIj7THZj_N-54" style="edgeStyle=orthogonalEdgeStyle;rounded=0;orthogonalLoop=1;jettySize=auto;html=1;entryX=0.151;entryY=0.05;entryDx=0;entryDy=0;entryPerimeter=0;" edge="1" parent="1" source="W9Ks_EkjWokIj7THZj_N-45" target="W9Ks_EkjWokIj7THZj_N-3">
          <mxGeometry relative="1" as="geometry" />
        </mxCell>
        <mxCell id="W9Ks_EkjWokIj7THZj_N-41" value="&lt;u&gt;NIF&lt;/u&gt;" style="ellipse;whiteSpace=wrap;html=1;" vertex="1" parent="1">
          <mxGeometry x="90" y="390" width="90" height="60" as="geometry" />
        </mxCell>
        <mxCell id="W9Ks_EkjWokIj7THZj_N-42" value="NºFEDERADO" style="ellipse;whiteSpace=wrap;html=1;" vertex="1" parent="1">
          <mxGeometry x="160" y="320" width="90" height="60" as="geometry" />
        </mxCell>
        <mxCell id="W9Ks_EkjWokIj7THZj_N-46" value="APELLIDOS" style="ellipse;whiteSpace=wrap;html=1;" vertex="1" parent="1">
          <mxGeometry x="140" y="230" width="90" height="60" as="geometry" />
        </mxCell>
        <mxCell id="W9Ks_EkjWokIj7THZj_N-57" value="JUGAR" style="rhombus;whiteSpace=wrap;html=1;" vertex="1" parent="1">
          <mxGeometry x="360" y="470" width="80" height="80" as="geometry" />
        </mxCell>
        <mxCell id="W9Ks_EkjWokIj7THZj_N-59" style="edgeStyle=orthogonalEdgeStyle;rounded=0;orthogonalLoop=1;jettySize=auto;html=1;entryX=0.383;entryY=1;entryDx=0;entryDy=0;entryPerimeter=0;" edge="1" parent="1" source="W9Ks_EkjWokIj7THZj_N-57" target="W9Ks_EkjWokIj7THZj_N-4">
          <mxGeometry relative="1" as="geometry" />
        </mxCell>
        <mxCell id="W9Ks_EkjWokIj7THZj_N-60" value="1:N" style="text;html=1;align=center;verticalAlign=middle;resizable=0;points=[];autosize=1;strokeColor=none;fillColor=none;" vertex="1" parent="1">
          <mxGeometry x="395" y="428" width="40" height="30" as="geometry" />
        </mxCell>
        <mxCell id="W9Ks_EkjWokIj7THZj_N-61" value="0:1" style="text;html=1;align=center;verticalAlign=middle;resizable=0;points=[];autosize=1;strokeColor=none;fillColor=none;" vertex="1" parent="1">
          <mxGeometry x="345" y="440" width="40" height="30" as="geometry" />
        </mxCell>
        <mxCell id="W9Ks_EkjWokIj7THZj_N-141" style="edgeStyle=orthogonalEdgeStyle;rounded=0;orthogonalLoop=1;jettySize=auto;html=1;entryX=1;entryY=0.5;entryDx=0;entryDy=0;" edge="1" parent="1" source="W9Ks_EkjWokIj7THZj_N-64" target="W9Ks_EkjWokIj7THZj_N-4">
          <mxGeometry relative="1" as="geometry" />
        </mxCell>
        <mxCell id="W9Ks_EkjWokIj7THZj_N-64" value="REGULAN" style="rhombus;whiteSpace=wrap;html=1;" vertex="1" parent="1">
          <mxGeometry x="600" y="342" width="80" height="80" as="geometry" />
        </mxCell>
        <mxCell id="W9Ks_EkjWokIj7THZj_N-77" style="edgeStyle=orthogonalEdgeStyle;rounded=0;orthogonalLoop=1;jettySize=auto;html=1;entryX=1;entryY=0.25;entryDx=0;entryDy=0;" edge="1" parent="1" source="W9Ks_EkjWokIj7THZj_N-66" target="W9Ks_EkjWokIj7THZj_N-2">
          <mxGeometry relative="1" as="geometry" />
        </mxCell>
        <mxCell id="W9Ks_EkjWokIj7THZj_N-66" value="APELLIDOS" style="ellipse;whiteSpace=wrap;html=1;" vertex="1" parent="1">
          <mxGeometry x="760" y="372" width="90" height="60" as="geometry" />
        </mxCell>
        <mxCell id="W9Ks_EkjWokIj7THZj_N-68" value="NºCOLEGIADO" style="ellipse;whiteSpace=wrap;html=1;" vertex="1" parent="1">
          <mxGeometry x="695" y="322" width="90" height="60" as="geometry" />
        </mxCell>
        <mxCell id="W9Ks_EkjWokIj7THZj_N-76" style="edgeStyle=orthogonalEdgeStyle;rounded=0;orthogonalLoop=1;jettySize=auto;html=1;" edge="1" parent="1" source="W9Ks_EkjWokIj7THZj_N-69" target="W9Ks_EkjWokIj7THZj_N-2">
          <mxGeometry relative="1" as="geometry" />
        </mxCell>
        <mxCell id="W9Ks_EkjWokIj7THZj_N-69" value="&lt;u&gt;NIF&lt;/u&gt;" style="ellipse;whiteSpace=wrap;html=1;" vertex="1" parent="1">
          <mxGeometry x="730" y="442" width="90" height="60" as="geometry" />
        </mxCell>
        <mxCell id="W9Ks_EkjWokIj7THZj_N-74" style="edgeStyle=orthogonalEdgeStyle;rounded=0;orthogonalLoop=1;jettySize=auto;html=1;" edge="1" parent="1" source="W9Ks_EkjWokIj7THZj_N-70" target="W9Ks_EkjWokIj7THZj_N-3">
          <mxGeometry relative="1" as="geometry" />
        </mxCell>
        <mxCell id="W9Ks_EkjWokIj7THZj_N-70" value="TELEFONO" style="ellipse;whiteSpace=wrap;html=1;" vertex="1" parent="1">
          <mxGeometry x="195" y="150" width="90" height="60" as="geometry" />
        </mxCell>
        <mxCell id="W9Ks_EkjWokIj7THZj_N-71" value="FECHA" style="ellipse;whiteSpace=wrap;html=1;" vertex="1" parent="1">
          <mxGeometry x="830" y="427" width="90" height="60" as="geometry" />
        </mxCell>
        <mxCell id="W9Ks_EkjWokIj7THZj_N-81" style="edgeStyle=orthogonalEdgeStyle;rounded=0;orthogonalLoop=1;jettySize=auto;html=1;entryX=1;entryY=1;entryDx=0;entryDy=0;" edge="1" parent="1" source="W9Ks_EkjWokIj7THZj_N-73" target="W9Ks_EkjWokIj7THZj_N-2">
          <mxGeometry relative="1" as="geometry" />
        </mxCell>
        <mxCell id="W9Ks_EkjWokIj7THZj_N-73" value="TELEFONO" style="ellipse;whiteSpace=wrap;html=1;" vertex="1" parent="1">
          <mxGeometry x="880" y="495" width="90" height="60" as="geometry" />
        </mxCell>
        <mxCell id="W9Ks_EkjWokIj7THZj_N-48" value="FECHA&lt;div&gt;FEDERADO&lt;/div&gt;" style="ellipse;whiteSpace=wrap;html=1;" vertex="1" parent="1">
          <mxGeometry x="240" y="260" width="90" height="60" as="geometry" />
        </mxCell>
        <mxCell id="W9Ks_EkjWokIj7THZj_N-80" style="edgeStyle=orthogonalEdgeStyle;rounded=0;orthogonalLoop=1;jettySize=auto;html=1;entryX=1;entryY=1;entryDx=0;entryDy=0;" edge="1" parent="1" source="W9Ks_EkjWokIj7THZj_N-75" target="W9Ks_EkjWokIj7THZj_N-2">
          <mxGeometry relative="1" as="geometry" />
        </mxCell>
        <mxCell id="W9Ks_EkjWokIj7THZj_N-75" value="AÑOS SIENDO&lt;div&gt;ARBITRO&lt;/div&gt;" style="ellipse;whiteSpace=wrap;html=1;" vertex="1" parent="1">
          <mxGeometry x="720" y="572" width="90" height="60" as="geometry" />
        </mxCell>
        <mxCell id="W9Ks_EkjWokIj7THZj_N-78" style="edgeStyle=orthogonalEdgeStyle;rounded=0;orthogonalLoop=1;jettySize=auto;html=1;entryX=0.919;entryY=0;entryDx=0;entryDy=0;entryPerimeter=0;" edge="1" parent="1" source="W9Ks_EkjWokIj7THZj_N-68" target="W9Ks_EkjWokIj7THZj_N-2">
          <mxGeometry relative="1" as="geometry" />
        </mxCell>
        <mxCell id="W9Ks_EkjWokIj7THZj_N-79" style="edgeStyle=orthogonalEdgeStyle;rounded=0;orthogonalLoop=1;jettySize=auto;html=1;entryX=1.01;entryY=0.829;entryDx=0;entryDy=0;entryPerimeter=0;" edge="1" parent="1" source="W9Ks_EkjWokIj7THZj_N-72" target="W9Ks_EkjWokIj7THZj_N-2">
          <mxGeometry relative="1" as="geometry" />
        </mxCell>
        <mxCell id="W9Ks_EkjWokIj7THZj_N-72" value="NOMBRE" style="ellipse;whiteSpace=wrap;html=1;" vertex="1" parent="1">
          <mxGeometry x="765" y="502" width="90" height="60" as="geometry" />
        </mxCell>
        <mxCell id="W9Ks_EkjWokIj7THZj_N-82" value="1:N" style="text;html=1;align=center;verticalAlign=middle;resizable=0;points=[];autosize=1;strokeColor=none;fillColor=none;" vertex="1" parent="1">
          <mxGeometry x="490" y="382" width="40" height="30" as="geometry" />
        </mxCell>
        <mxCell id="W9Ks_EkjWokIj7THZj_N-83" value="0:1" style="text;html=1;align=center;verticalAlign=middle;resizable=0;points=[];autosize=1;strokeColor=none;fillColor=none;" vertex="1" parent="1">
          <mxGeometry x="590" y="420" width="40" height="30" as="geometry" />
        </mxCell>
        <mxCell id="W9Ks_EkjWokIj7THZj_N-85" value="0:N" style="text;html=1;align=center;verticalAlign=middle;resizable=0;points=[];autosize=1;strokeColor=none;fillColor=none;" vertex="1" parent="1">
          <mxGeometry x="350" y="798" width="40" height="30" as="geometry" />
        </mxCell>
        <mxCell id="W9Ks_EkjWokIj7THZj_N-86" value="0:1" style="text;html=1;align=center;verticalAlign=middle;resizable=0;points=[];autosize=1;strokeColor=none;fillColor=none;" vertex="1" parent="1">
          <mxGeometry x="280" y="968" width="40" height="30" as="geometry" />
        </mxCell>
        <mxCell id="W9Ks_EkjWokIj7THZj_N-87" value="CONTIENE" style="rhombus;whiteSpace=wrap;html=1;" vertex="1" parent="1">
          <mxGeometry x="160" y="990" width="80" height="80" as="geometry" />
        </mxCell>
        <mxCell id="W9Ks_EkjWokIj7THZj_N-91" value="0:N" style="text;html=1;align=center;verticalAlign=middle;resizable=0;points=[];autosize=1;strokeColor=none;fillColor=none;" vertex="1" parent="1">
          <mxGeometry x="230" y="998" width="40" height="30" as="geometry" />
        </mxCell>
        <mxCell id="W9Ks_EkjWokIj7THZj_N-92" value="0:1" style="text;html=1;align=center;verticalAlign=middle;resizable=0;points=[];autosize=1;strokeColor=none;fillColor=none;" vertex="1" parent="1">
          <mxGeometry x="130" y="1038" width="40" height="30" as="geometry" />
        </mxCell>
        <mxCell id="W9Ks_EkjWokIj7THZj_N-95" value="TELÉFONO" style="ellipse;whiteSpace=wrap;html=1;" vertex="1" parent="1">
          <mxGeometry x="-220" y="953" width="90" height="60" as="geometry" />
        </mxCell>
        <mxCell id="W9Ks_EkjWokIj7THZj_N-103" style="edgeStyle=orthogonalEdgeStyle;rounded=0;orthogonalLoop=1;jettySize=auto;html=1;entryX=0;entryY=0.75;entryDx=0;entryDy=0;" edge="1" parent="1" source="W9Ks_EkjWokIj7THZj_N-96" target="W9Ks_EkjWokIj7THZj_N-7">
          <mxGeometry relative="1" as="geometry" />
        </mxCell>
        <mxCell id="W9Ks_EkjWokIj7THZj_N-96" value="DIRECCIÓN" style="ellipse;whiteSpace=wrap;html=1;" vertex="1" parent="1">
          <mxGeometry x="-110" y="1060" width="90" height="60" as="geometry" />
        </mxCell>
        <mxCell id="W9Ks_EkjWokIj7THZj_N-97" value="CATEGORIA" style="ellipse;whiteSpace=wrap;html=1;" vertex="1" parent="1">
          <mxGeometry x="-20" y="1100" width="90" height="60" as="geometry" />
        </mxCell>
        <mxCell id="W9Ks_EkjWokIj7THZj_N-98" value="NOMBRE" style="ellipse;whiteSpace=wrap;html=1;" vertex="1" parent="1">
          <mxGeometry x="-130" y="994" width="90" height="60" as="geometry" />
        </mxCell>
        <mxCell id="W9Ks_EkjWokIj7THZj_N-100" style="edgeStyle=orthogonalEdgeStyle;rounded=0;orthogonalLoop=1;jettySize=auto;html=1;entryX=0.5;entryY=0;entryDx=0;entryDy=0;" edge="1" parent="1" source="W9Ks_EkjWokIj7THZj_N-99" target="W9Ks_EkjWokIj7THZj_N-7">
          <mxGeometry relative="1" as="geometry" />
        </mxCell>
        <mxCell id="W9Ks_EkjWokIj7THZj_N-99" value="&lt;u&gt;CÓDIGO&lt;/u&gt;" style="ellipse;whiteSpace=wrap;html=1;" vertex="1" parent="1">
          <mxGeometry x="-20" y="880" width="90" height="60" as="geometry" />
        </mxCell>
        <mxCell id="W9Ks_EkjWokIj7THZj_N-101" style="edgeStyle=orthogonalEdgeStyle;rounded=0;orthogonalLoop=1;jettySize=auto;html=1;entryX=0.442;entryY=0.061;entryDx=0;entryDy=0;entryPerimeter=0;" edge="1" parent="1" source="W9Ks_EkjWokIj7THZj_N-94" target="W9Ks_EkjWokIj7THZj_N-7">
          <mxGeometry relative="1" as="geometry" />
        </mxCell>
        <mxCell id="W9Ks_EkjWokIj7THZj_N-102" style="edgeStyle=orthogonalEdgeStyle;rounded=0;orthogonalLoop=1;jettySize=auto;html=1;entryX=0;entryY=0.4;entryDx=0;entryDy=0;entryPerimeter=0;" edge="1" parent="1" source="W9Ks_EkjWokIj7THZj_N-98" target="W9Ks_EkjWokIj7THZj_N-7">
          <mxGeometry relative="1" as="geometry" />
        </mxCell>
        <mxCell id="W9Ks_EkjWokIj7THZj_N-104" style="edgeStyle=orthogonalEdgeStyle;rounded=0;orthogonalLoop=1;jettySize=auto;html=1;entryX=0.131;entryY=1.039;entryDx=0;entryDy=0;entryPerimeter=0;" edge="1" parent="1" source="W9Ks_EkjWokIj7THZj_N-97" target="W9Ks_EkjWokIj7THZj_N-7">
          <mxGeometry relative="1" as="geometry" />
        </mxCell>
        <mxCell id="W9Ks_EkjWokIj7THZj_N-105" style="edgeStyle=orthogonalEdgeStyle;rounded=0;orthogonalLoop=1;jettySize=auto;html=1;entryX=0.206;entryY=0.004;entryDx=0;entryDy=0;entryPerimeter=0;" edge="1" parent="1" source="W9Ks_EkjWokIj7THZj_N-95" target="W9Ks_EkjWokIj7THZj_N-7">
          <mxGeometry relative="1" as="geometry" />
        </mxCell>
        <mxCell id="W9Ks_EkjWokIj7THZj_N-94" value="NºHABITACIONES" style="ellipse;whiteSpace=wrap;html=1;" vertex="1" parent="1">
          <mxGeometry x="-100" y="930" width="90" height="60" as="geometry" />
        </mxCell>
        <mxCell id="W9Ks_EkjWokIj7THZj_N-111" style="edgeStyle=orthogonalEdgeStyle;rounded=0;orthogonalLoop=1;jettySize=auto;html=1;entryX=0.25;entryY=1;entryDx=0;entryDy=0;" edge="1" parent="1" source="W9Ks_EkjWokIj7THZj_N-106" target="W9Ks_EkjWokIj7THZj_N-93">
          <mxGeometry relative="1" as="geometry" />
        </mxCell>
        <mxCell id="W9Ks_EkjWokIj7THZj_N-106" value="FECHA&lt;div&gt;ENTRADA&lt;/div&gt;" style="ellipse;whiteSpace=wrap;html=1;" vertex="1" parent="1">
          <mxGeometry x="190" y="1090" width="90" height="60" as="geometry" />
        </mxCell>
        <mxCell id="W9Ks_EkjWokIj7THZj_N-107" value="FECHA&lt;div&gt;SALIDA&lt;/div&gt;" style="ellipse;whiteSpace=wrap;html=1;" vertex="1" parent="1">
          <mxGeometry x="260" y="1160" width="90" height="60" as="geometry" />
        </mxCell>
        <mxCell id="W9Ks_EkjWokIj7THZj_N-108" value="NUMERO" style="ellipse;whiteSpace=wrap;html=1;" vertex="1" parent="1">
          <mxGeometry x="325" y="1109" width="90" height="60" as="geometry" />
        </mxCell>
        <mxCell id="W9Ks_EkjWokIj7THZj_N-109" style="edgeStyle=orthogonalEdgeStyle;rounded=0;orthogonalLoop=1;jettySize=auto;html=1;entryX=0.828;entryY=1.002;entryDx=0;entryDy=0;entryPerimeter=0;" edge="1" parent="1" source="W9Ks_EkjWokIj7THZj_N-108" target="W9Ks_EkjWokIj7THZj_N-93">
          <mxGeometry relative="1" as="geometry" />
        </mxCell>
        <mxCell id="W9Ks_EkjWokIj7THZj_N-110" style="edgeStyle=orthogonalEdgeStyle;rounded=0;orthogonalLoop=1;jettySize=auto;html=1;entryX=0.462;entryY=0.976;entryDx=0;entryDy=0;entryPerimeter=0;" edge="1" parent="1" source="W9Ks_EkjWokIj7THZj_N-107" target="W9Ks_EkjWokIj7THZj_N-93">
          <mxGeometry relative="1" as="geometry" />
        </mxCell>
        <mxCell id="W9Ks_EkjWokIj7THZj_N-118" value="0:1" style="text;html=1;align=center;verticalAlign=middle;resizable=0;points=[];autosize=1;strokeColor=none;fillColor=none;" vertex="1" parent="1">
          <mxGeometry x="750" y="750" width="40" height="30" as="geometry" />
        </mxCell>
        <mxCell id="W9Ks_EkjWokIj7THZj_N-119" value="0:N" style="text;html=1;align=center;verticalAlign=middle;resizable=0;points=[];autosize=1;strokeColor=none;fillColor=none;" vertex="1" parent="1">
          <mxGeometry x="750" y="864" width="40" height="30" as="geometry" />
        </mxCell>
        <mxCell id="W9Ks_EkjWokIj7THZj_N-126" style="edgeStyle=orthogonalEdgeStyle;rounded=0;orthogonalLoop=1;jettySize=auto;html=1;entryX=0.25;entryY=1;entryDx=0;entryDy=0;" edge="1" parent="1" source="W9Ks_EkjWokIj7THZj_N-122" target="W9Ks_EkjWokIj7THZj_N-6">
          <mxGeometry relative="1" as="geometry" />
        </mxCell>
        <mxCell id="W9Ks_EkjWokIj7THZj_N-131" style="edgeStyle=orthogonalEdgeStyle;rounded=0;orthogonalLoop=1;jettySize=auto;html=1;" edge="1" parent="1" source="W9Ks_EkjWokIj7THZj_N-123" target="W9Ks_EkjWokIj7THZj_N-6">
          <mxGeometry relative="1" as="geometry" />
        </mxCell>
        <mxCell id="W9Ks_EkjWokIj7THZj_N-123" value="FECHA" style="ellipse;whiteSpace=wrap;html=1;" vertex="1" parent="1">
          <mxGeometry x="735" y="1100" width="90" height="60" as="geometry" />
        </mxCell>
        <mxCell id="W9Ks_EkjWokIj7THZj_N-124" value="NºARBITROS" style="ellipse;whiteSpace=wrap;html=1;" vertex="1" parent="1">
          <mxGeometry x="795" y="1040" width="90" height="60" as="geometry" />
        </mxCell>
        <mxCell id="W9Ks_EkjWokIj7THZj_N-125" value="NºJUGADORES" style="ellipse;whiteSpace=wrap;html=1;" vertex="1" parent="1">
          <mxGeometry x="665" y="1050" width="90" height="60" as="geometry" />
        </mxCell>
        <mxCell id="W9Ks_EkjWokIj7THZj_N-127" style="edgeStyle=orthogonalEdgeStyle;rounded=0;orthogonalLoop=1;jettySize=auto;html=1;entryX=1.001;entryY=0.592;entryDx=0;entryDy=0;entryPerimeter=0;" edge="1" parent="1" source="W9Ks_EkjWokIj7THZj_N-121" target="W9Ks_EkjWokIj7THZj_N-6">
          <mxGeometry relative="1" as="geometry" />
        </mxCell>
        <mxCell id="W9Ks_EkjWokIj7THZj_N-128" style="edgeStyle=orthogonalEdgeStyle;rounded=0;orthogonalLoop=1;jettySize=auto;html=1;entryX=0.61;entryY=1.029;entryDx=0;entryDy=0;entryPerimeter=0;" edge="1" parent="1" source="W9Ks_EkjWokIj7THZj_N-125" target="W9Ks_EkjWokIj7THZj_N-6">
          <mxGeometry relative="1" as="geometry" />
        </mxCell>
        <mxCell id="W9Ks_EkjWokIj7THZj_N-130" style="edgeStyle=orthogonalEdgeStyle;rounded=0;orthogonalLoop=1;jettySize=auto;html=1;entryX=0.647;entryY=0.946;entryDx=0;entryDy=0;entryPerimeter=0;" edge="1" parent="1" source="W9Ks_EkjWokIj7THZj_N-124" target="W9Ks_EkjWokIj7THZj_N-6">
          <mxGeometry relative="1" as="geometry" />
        </mxCell>
        <mxCell id="W9Ks_EkjWokIj7THZj_N-122" value="&lt;u&gt;CÓDIGO&lt;/u&gt;" style="ellipse;whiteSpace=wrap;html=1;" vertex="1" parent="1">
          <mxGeometry x="665" y="980" width="90" height="60" as="geometry" />
        </mxCell>
        <mxCell id="W9Ks_EkjWokIj7THZj_N-121" value="NOMBRE&lt;div&gt;REGIÓN&lt;/div&gt;" style="ellipse;whiteSpace=wrap;html=1;" vertex="1" parent="1">
          <mxGeometry x="765" y="980" width="90" height="60" as="geometry" />
        </mxCell>
        <mxCell id="W9Ks_EkjWokIj7THZj_N-132" value="0:N" style="text;html=1;align=center;verticalAlign=middle;resizable=0;points=[];autosize=1;strokeColor=none;fillColor=none;" vertex="1" parent="1">
          <mxGeometry x="490" y="1020" width="40" height="30" as="geometry" />
        </mxCell>
        <mxCell id="W9Ks_EkjWokIj7THZj_N-133" value="0:M" style="text;html=1;align=center;verticalAlign=middle;resizable=0;points=[];autosize=1;strokeColor=none;fillColor=none;" vertex="1" parent="1">
          <mxGeometry x="487.5" y="1198" width="40" height="30" as="geometry" />
        </mxCell>
        <mxCell id="W9Ks_EkjWokIj7THZj_N-139" style="edgeStyle=orthogonalEdgeStyle;rounded=0;orthogonalLoop=1;jettySize=auto;html=1;entryX=1;entryY=0.25;entryDx=0;entryDy=0;" edge="1" parent="1" source="W9Ks_EkjWokIj7THZj_N-134" target="W9Ks_EkjWokIj7THZj_N-10">
          <mxGeometry relative="1" as="geometry" />
        </mxCell>
        <mxCell id="W9Ks_EkjWokIj7THZj_N-134" value="NºSALA" style="ellipse;whiteSpace=wrap;html=1;" vertex="1" parent="1">
          <mxGeometry x="577.5" y="1168" width="90" height="60" as="geometry" />
        </mxCell>
        <mxCell id="W9Ks_EkjWokIj7THZj_N-137" style="edgeStyle=orthogonalEdgeStyle;rounded=0;orthogonalLoop=1;jettySize=auto;html=1;entryX=0.75;entryY=1;entryDx=0;entryDy=0;" edge="1" parent="1" source="W9Ks_EkjWokIj7THZj_N-135" target="W9Ks_EkjWokIj7THZj_N-10">
          <mxGeometry relative="1" as="geometry" />
        </mxCell>
        <mxCell id="W9Ks_EkjWokIj7THZj_N-135" value="DESCRIPCIÓN" style="ellipse;whiteSpace=wrap;html=1;" vertex="1" parent="1">
          <mxGeometry x="577.5" y="1320" width="90" height="60" as="geometry" />
        </mxCell>
        <mxCell id="W9Ks_EkjWokIj7THZj_N-138" style="edgeStyle=orthogonalEdgeStyle;rounded=0;orthogonalLoop=1;jettySize=auto;html=1;entryX=1;entryY=0.75;entryDx=0;entryDy=0;" edge="1" parent="1" source="W9Ks_EkjWokIj7THZj_N-136" target="W9Ks_EkjWokIj7THZj_N-10">
          <mxGeometry relative="1" as="geometry" />
        </mxCell>
        <mxCell id="W9Ks_EkjWokIj7THZj_N-136" value="CAPACIDAD" style="ellipse;whiteSpace=wrap;html=1;" vertex="1" parent="1">
          <mxGeometry x="577.5" y="1250" width="90" height="60" as="geometry" />
        </mxCell>
        <mxCell id="W9Ks_EkjWokIj7THZj_N-153" style="edgeStyle=orthogonalEdgeStyle;rounded=0;orthogonalLoop=1;jettySize=auto;html=1;entryX=0.75;entryY=0;entryDx=0;entryDy=0;" edge="1" parent="1" source="W9Ks_EkjWokIj7THZj_N-140" target="W9Ks_EkjWokIj7THZj_N-4">
          <mxGeometry relative="1" as="geometry" />
        </mxCell>
        <mxCell id="W9Ks_EkjWokIj7THZj_N-154" style="edgeStyle=orthogonalEdgeStyle;rounded=0;orthogonalLoop=1;jettySize=auto;html=1;entryX=0.75;entryY=0;entryDx=0;entryDy=0;" edge="1" parent="1" source="W9Ks_EkjWokIj7THZj_N-142" target="W9Ks_EkjWokIj7THZj_N-4">
          <mxGeometry relative="1" as="geometry" />
        </mxCell>
        <mxCell id="W9Ks_EkjWokIj7THZj_N-142" value="DURACIÓN" style="ellipse;whiteSpace=wrap;html=1;" vertex="1" parent="1">
          <mxGeometry x="527.5" y="300" width="90" height="60" as="geometry" />
        </mxCell>
        <mxCell id="W9Ks_EkjWokIj7THZj_N-155" style="edgeStyle=orthogonalEdgeStyle;rounded=0;orthogonalLoop=1;jettySize=auto;html=1;entryX=0.75;entryY=0;entryDx=0;entryDy=0;" edge="1" parent="1" source="W9Ks_EkjWokIj7THZj_N-143" target="W9Ks_EkjWokIj7THZj_N-4">
          <mxGeometry relative="1" as="geometry" />
        </mxCell>
        <mxCell id="W9Ks_EkjWokIj7THZj_N-143" value="FECHA" style="ellipse;whiteSpace=wrap;html=1;" vertex="1" parent="1">
          <mxGeometry x="590" y="230" width="90" height="60" as="geometry" />
        </mxCell>
        <mxCell id="W9Ks_EkjWokIj7THZj_N-150" style="edgeStyle=orthogonalEdgeStyle;rounded=0;orthogonalLoop=1;jettySize=auto;html=1;entryX=1;entryY=0.5;entryDx=0;entryDy=0;" edge="1" parent="1" source="W9Ks_EkjWokIj7THZj_N-146" target="W9Ks_EkjWokIj7THZj_N-147">
          <mxGeometry relative="1" as="geometry" />
        </mxCell>
        <mxCell id="W9Ks_EkjWokIj7THZj_N-146" value="SALAS HOTEL" style="rounded=0;whiteSpace=wrap;html=1;" vertex="1" parent="1">
          <mxGeometry x="425" y="1235" width="120" height="60" as="geometry" />
        </mxCell>
        <mxCell id="W9Ks_EkjWokIj7THZj_N-157" style="edgeStyle=orthogonalEdgeStyle;rounded=0;orthogonalLoop=1;jettySize=auto;html=1;entryX=0.75;entryY=0;entryDx=0;entryDy=0;" edge="1" parent="1" source="W9Ks_EkjWokIj7THZj_N-144" target="W9Ks_EkjWokIj7THZj_N-4">
          <mxGeometry relative="1" as="geometry" />
        </mxCell>
        <mxCell id="W9Ks_EkjWokIj7THZj_N-144" value="NOMBRES&lt;div&gt;JUGADORES&lt;/div&gt;" style="ellipse;whiteSpace=wrap;html=1;" vertex="1" parent="1">
          <mxGeometry x="530" y="160" width="90" height="60" as="geometry" />
        </mxCell>
        <mxCell id="W9Ks_EkjWokIj7THZj_N-147" value="CONTIENE" style="rhombus;whiteSpace=wrap;html=1;" vertex="1" parent="1">
          <mxGeometry x="130" y="1340" width="80" height="80" as="geometry" />
        </mxCell>
        <mxCell id="W9Ks_EkjWokIj7THZj_N-151" value="0:N" style="text;html=1;align=center;verticalAlign=middle;resizable=0;points=[];autosize=1;strokeColor=none;fillColor=none;" vertex="1" parent="1">
          <mxGeometry x="335" y="1280" width="40" height="30" as="geometry" />
        </mxCell>
        <mxCell id="W9Ks_EkjWokIj7THZj_N-152" value="0:1" style="text;html=1;align=center;verticalAlign=middle;resizable=0;points=[];autosize=1;strokeColor=none;fillColor=none;" vertex="1" parent="1">
          <mxGeometry x="30" y="1258" width="40" height="30" as="geometry" />
        </mxCell>
        <mxCell id="W9Ks_EkjWokIj7THZj_N-140" value="&lt;u&gt;CÓDIGO&lt;/u&gt;" style="ellipse;whiteSpace=wrap;html=1;" vertex="1" parent="1">
          <mxGeometry x="475" y="240" width="90" height="60" as="geometry" />
        </mxCell>
        <mxCell id="W9Ks_EkjWokIj7THZj_N-164" style="edgeStyle=orthogonalEdgeStyle;rounded=0;orthogonalLoop=1;jettySize=auto;html=1;entryX=0.25;entryY=0;entryDx=0;entryDy=0;" edge="1" parent="1" source="W9Ks_EkjWokIj7THZj_N-158" target="W9Ks_EkjWokIj7THZj_N-11">
          <mxGeometry relative="1" as="geometry" />
        </mxCell>
        <mxCell id="W9Ks_EkjWokIj7THZj_N-158" value="NºCASILLA&lt;div&gt;FICHA&lt;/div&gt;" style="ellipse;whiteSpace=wrap;html=1;" vertex="1" parent="1">
          <mxGeometry x="310" y="-80" width="90" height="60" as="geometry" />
        </mxCell>
        <mxCell id="W9Ks_EkjWokIj7THZj_N-159" value="NºCASILLA&lt;div&gt;MOVER&lt;/div&gt;" style="ellipse;whiteSpace=wrap;html=1;" vertex="1" parent="1">
          <mxGeometry x="414" y="-80" width="90" height="60" as="geometry" />
        </mxCell>
        <mxCell id="W9Ks_EkjWokIj7THZj_N-160" value="COMENTARIOS" style="ellipse;whiteSpace=wrap;html=1;" vertex="1" parent="1">
          <mxGeometry x="210" y="-10" width="90" height="60" as="geometry" />
        </mxCell>
        <mxCell id="W9Ks_EkjWokIj7THZj_N-167" style="edgeStyle=orthogonalEdgeStyle;rounded=0;orthogonalLoop=1;jettySize=auto;html=1;" edge="1" parent="1" source="W9Ks_EkjWokIj7THZj_N-161" target="W9Ks_EkjWokIj7THZj_N-11">
          <mxGeometry relative="1" as="geometry" />
        </mxCell>
        <mxCell id="W9Ks_EkjWokIj7THZj_N-161" value="NºORDEN" style="ellipse;whiteSpace=wrap;html=1;" vertex="1" parent="1">
          <mxGeometry x="510" width="90" height="60" as="geometry" />
        </mxCell>
        <mxCell id="W9Ks_EkjWokIj7THZj_N-165" style="edgeStyle=orthogonalEdgeStyle;rounded=0;orthogonalLoop=1;jettySize=auto;html=1;entryX=0.648;entryY=0.052;entryDx=0;entryDy=0;entryPerimeter=0;" edge="1" parent="1" source="W9Ks_EkjWokIj7THZj_N-159" target="W9Ks_EkjWokIj7THZj_N-11">
          <mxGeometry relative="1" as="geometry" />
        </mxCell>
        <mxCell id="W9Ks_EkjWokIj7THZj_N-168" style="edgeStyle=orthogonalEdgeStyle;rounded=0;orthogonalLoop=1;jettySize=auto;html=1;entryX=0.042;entryY=0.333;entryDx=0;entryDy=0;entryPerimeter=0;" edge="1" parent="1" source="W9Ks_EkjWokIj7THZj_N-160" target="W9Ks_EkjWokIj7THZj_N-11">
          <mxGeometry relative="1" as="geometry" />
        </mxCell>
        <mxCell id="W9Ks_EkjWokIj7THZj_N-171" value="REALIZAN" style="rhombus;whiteSpace=wrap;html=1;" vertex="1" parent="1">
          <mxGeometry x="330" y="140" width="80" height="80" as="geometry" />
        </mxCell>
        <mxCell id="W9Ks_EkjWokIj7THZj_N-172" style="edgeStyle=orthogonalEdgeStyle;rounded=0;orthogonalLoop=1;jettySize=auto;html=1;entryX=0.458;entryY=1;entryDx=0;entryDy=0;entryPerimeter=0;" edge="1" parent="1" source="W9Ks_EkjWokIj7THZj_N-171" target="W9Ks_EkjWokIj7THZj_N-11">
          <mxGeometry relative="1" as="geometry" />
        </mxCell>
        <mxCell id="W9Ks_EkjWokIj7THZj_N-173" value="0:N" style="text;html=1;align=center;verticalAlign=middle;resizable=0;points=[];autosize=1;strokeColor=none;fillColor=none;" vertex="1" parent="1">
          <mxGeometry x="320" y="108" width="40" height="30" as="geometry" />
        </mxCell>
        <mxCell id="W9Ks_EkjWokIj7THZj_N-174" value="0:1" style="text;html=1;align=center;verticalAlign=middle;resizable=0;points=[];autosize=1;strokeColor=none;fillColor=none;" vertex="1" parent="1">
          <mxGeometry x="330" y="230" width="40" height="30" as="geometry" />
        </mxCell>
        <mxCell id="W9Ks_EkjWokIj7THZj_N-177" style="edgeStyle=orthogonalEdgeStyle;rounded=0;orthogonalLoop=1;jettySize=auto;html=1;entryX=0.5;entryY=1;entryDx=0;entryDy=0;" edge="1" parent="1" source="W9Ks_EkjWokIj7THZj_N-175" target="W9Ks_EkjWokIj7THZj_N-57">
          <mxGeometry relative="1" as="geometry" />
        </mxCell>
        <mxCell id="W9Ks_EkjWokIj7THZj_N-175" value="COLOR&lt;div&gt;JUGADOR&lt;/div&gt;" style="ellipse;whiteSpace=wrap;html=1;" vertex="1" parent="1">
          <mxGeometry x="362.5" y="580" width="80" height="60" as="geometry" />
        </mxCell>
        <mxCell id="W9Ks_EkjWokIj7THZj_N-176" value="RANKING&lt;div&gt;JUGADOR&lt;/div&gt;" style="ellipse;whiteSpace=wrap;html=1;" vertex="1" parent="1">
          <mxGeometry x="455" y="550" width="80" height="60" as="geometry" />
        </mxCell>
        <mxCell id="W9Ks_EkjWokIj7THZj_N-178" style="edgeStyle=orthogonalEdgeStyle;rounded=0;orthogonalLoop=1;jettySize=auto;html=1;entryX=0.971;entryY=0.575;entryDx=0;entryDy=0;entryPerimeter=0;" edge="1" parent="1" source="W9Ks_EkjWokIj7THZj_N-176" target="W9Ks_EkjWokIj7THZj_N-57">
          <mxGeometry relative="1" as="geometry" />
        </mxCell>
      </root>
    </mxGraphModel>
  </diagram>
</mxfile>
